<?xml version="1.0" encoding="UTF-8" standalone="no"?>
<!DOCTYPE svg PUBLIC "-//W3C//DTD SVG 1.1//EN"
 "http://www.w3.org/Graphics/SVG/1.1/DTD/svg11.dtd">
<!-- Generated by graphviz version 9.0.0 (20230911.1827)
 -->
<!-- Pages: 1 -->
<svg width="2291pt" height="764pt"
 viewBox="0.00 0.00 2290.77 764.00" xmlns="http://www.w3.org/2000/svg" xmlns:xlink="http://www.w3.org/1999/xlink">
<g id="graph0" class="graph" transform="scale(1 1) rotate(0) translate(4 760)">
<polygon fill="white" stroke="none" points="-4,4 -4,-760 2286.77,-760 2286.77,4 -4,4"/>
<!-- [root] data.ibm_is_image.image (expand) -->
<g id="node1" class="node">
<title>[root] data.ibm_is_image.image (expand)</title>
<polygon fill="none" stroke="black" points="841.37,-468 683.62,-468 683.62,-432 841.37,-432 841.37,-468"/>
<text text-anchor="middle" x="762.49" y="-444.95" font-family="Times,serif" font-size="14.00">data.ibm_is_image.image</text>
</g>
<!-- [root] provider[&quot;registry.terraform.io/ibm&#45;cloud/ibm&quot;] -->
<g id="node15" class="node">
<title>[root] provider[&quot;registry.terraform.io/ibm&#45;cloud/ibm&quot;]</title>
<polygon fill="none" stroke="black" points="1033.49,-180 764.72,-162 1033.49,-144 1302.27,-162 1033.49,-180"/>
<text text-anchor="middle" x="1033.49" y="-156.95" font-family="Times,serif" font-size="14.00">provider[&quot;registry.terraform.io/ibm&#45;cloud/ibm&quot;]</text>
</g>
<!-- [root] data.ibm_is_image.image (expand)&#45;&gt;[root] provider[&quot;registry.terraform.io/ibm&#45;cloud/ibm&quot;] -->
<g id="edge1" class="edge">
<title>[root] data.ibm_is_image.image (expand)&#45;&gt;[root] provider[&quot;registry.terraform.io/ibm&#45;cloud/ibm&quot;]</title>
<path fill="none" stroke="black" d="M841.63,-433.64C844.62,-433.08 847.58,-432.53 850.49,-432 896.42,-423.57 1027.44,-431.73 1057.49,-396 1107.15,-336.96 1070.02,-237.46 1047.47,-189.89"/>
<polygon fill="black" stroke="black" points="1050.72,-188.57 1043.18,-181.13 1044.43,-191.65 1050.72,-188.57"/>
</g>
<!-- [root] var.image_name -->
<g id="node19" class="node">
<title>[root] var.image_name</title>
<polygon fill="none" stroke="black" points="780.87,-396 680.12,-396 680.12,-360 786.87,-360 786.87,-390 780.87,-396"/>
<polyline fill="none" stroke="black" points="780.87,-396 780.87,-390"/>
<polyline fill="none" stroke="black" points="786.87,-390 780.87,-390"/>
<text text-anchor="middle" x="733.49" y="-372.95" font-family="Times,serif" font-size="14.00">var.image_name</text>
</g>
<!-- [root] data.ibm_is_image.image (expand)&#45;&gt;[root] var.image_name -->
<g id="edge2" class="edge">
<title>[root] data.ibm_is_image.image (expand)&#45;&gt;[root] var.image_name</title>
<path fill="none" stroke="black" d="M755.32,-431.7C752.2,-424.15 748.46,-415.12 744.96,-406.68"/>
<polygon fill="black" stroke="black" points="748.22,-405.4 741.16,-397.5 741.75,-408.08 748.22,-405.4"/>
</g>
<!-- [root] ibm_is_floating_ip.public_ip (expand) -->
<g id="node2" class="node">
<title>[root] ibm_is_floating_ip.public_ip (expand)</title>
<polygon fill="none" stroke="black" points="792.62,-612 618.37,-612 618.37,-576 792.62,-576 792.62,-612"/>
<text text-anchor="middle" x="705.49" y="-588.95" font-family="Times,serif" font-size="14.00">ibm_is_floating_ip.public_ip</text>
</g>
<!-- [root] ibm_is_instance.vsi (expand) -->
<g id="node3" class="node">
<title>[root] ibm_is_instance.vsi (expand)</title>
<polygon fill="none" stroke="black" points="838.49,-540 714.49,-540 714.49,-504 838.49,-504 838.49,-540"/>
<text text-anchor="middle" x="776.49" y="-516.95" font-family="Times,serif" font-size="14.00">ibm_is_instance.vsi</text>
</g>
<!-- [root] ibm_is_floating_ip.public_ip (expand)&#45;&gt;[root] ibm_is_instance.vsi (expand) -->
<g id="edge3" class="edge">
<title>[root] ibm_is_floating_ip.public_ip (expand)&#45;&gt;[root] ibm_is_instance.vsi (expand)</title>
<path fill="none" stroke="black" d="M723.04,-575.7C731.47,-567.39 741.73,-557.28 750.99,-548.14"/>
<polygon fill="black" stroke="black" points="753.4,-550.68 758.07,-541.17 748.49,-545.7 753.4,-550.68"/>
</g>
<!-- [root] var.create_public_ip -->
<g id="node18" class="node">
<title>[root] var.create_public_ip</title>
<polygon fill="none" stroke="black" points="690.62,-540 570.37,-540 570.37,-504 696.62,-504 696.62,-534 690.62,-540"/>
<polyline fill="none" stroke="black" points="690.62,-540 690.62,-534"/>
<polyline fill="none" stroke="black" points="696.62,-534 690.62,-534"/>
<text text-anchor="middle" x="633.49" y="-516.95" font-family="Times,serif" font-size="14.00">var.create_public_ip</text>
</g>
<!-- [root] ibm_is_floating_ip.public_ip (expand)&#45;&gt;[root] var.create_public_ip -->
<g id="edge4" class="edge">
<title>[root] ibm_is_floating_ip.public_ip (expand)&#45;&gt;[root] var.create_public_ip</title>
<path fill="none" stroke="black" d="M687.69,-575.7C679.21,-567.45 668.9,-557.43 659.56,-548.35"/>
<polygon fill="black" stroke="black" points="662.03,-545.86 652.42,-541.4 657.15,-550.88 662.03,-545.86"/>
</g>
<!-- [root] ibm_is_instance.vsi (expand)&#45;&gt;[root] data.ibm_is_image.image (expand) -->
<g id="edge5" class="edge">
<title>[root] ibm_is_instance.vsi (expand)&#45;&gt;[root] data.ibm_is_image.image (expand)</title>
<path fill="none" stroke="black" d="M773.03,-503.7C771.56,-496.32 769.8,-487.52 768.14,-479.25"/>
<polygon fill="black" stroke="black" points="771.6,-478.71 766.21,-469.59 764.74,-480.08 771.6,-478.71"/>
</g>
<!-- [root] ibm_is_ssh_key.generated_ssh_key (expand) -->
<g id="node6" class="node">
<title>[root] ibm_is_ssh_key.generated_ssh_key (expand)</title>
<polygon fill="none" stroke="black" points="1221.24,-468 1011.74,-468 1011.74,-432 1221.24,-432 1221.24,-468"/>
<text text-anchor="middle" x="1116.49" y="-444.95" font-family="Times,serif" font-size="14.00">ibm_is_ssh_key.generated_ssh_key</text>
</g>
<!-- [root] ibm_is_instance.vsi (expand)&#45;&gt;[root] ibm_is_ssh_key.generated_ssh_key (expand) -->
<g id="edge6" class="edge">
<title>[root] ibm_is_instance.vsi (expand)&#45;&gt;[root] ibm_is_ssh_key.generated_ssh_key (expand)</title>
<path fill="none" stroke="black" d="M838.8,-505.93C841.73,-505.27 844.64,-504.62 847.49,-504 901.54,-492.21 961.95,-480.2 1011.81,-470.61"/>
<polygon fill="black" stroke="black" points="1012.28,-474.08 1021.44,-468.76 1010.96,-467.2 1012.28,-474.08"/>
</g>
<!-- [root] ibm_is_subnet.subnet (expand) -->
<g id="node7" class="node">
<title>[root] ibm_is_subnet.subnet (expand)</title>
<polygon fill="none" stroke="black" points="993.74,-468 859.24,-468 859.24,-432 993.74,-432 993.74,-468"/>
<text text-anchor="middle" x="926.49" y="-444.95" font-family="Times,serif" font-size="14.00">ibm_is_subnet.subnet</text>
</g>
<!-- [root] ibm_is_instance.vsi (expand)&#45;&gt;[root] ibm_is_subnet.subnet (expand) -->
<g id="edge7" class="edge">
<title>[root] ibm_is_instance.vsi (expand)&#45;&gt;[root] ibm_is_subnet.subnet (expand)</title>
<path fill="none" stroke="black" d="M813.96,-503.52C833.63,-494.34 857.94,-482.99 878.93,-473.2"/>
<polygon fill="black" stroke="black" points="880.29,-476.42 887.87,-469.02 877.33,-470.08 880.29,-476.42"/>
</g>
<!-- [root] var.profile_name -->
<g id="node21" class="node">
<title>[root] var.profile_name</title>
<polygon fill="none" stroke="black" points="659.99,-468 556.99,-468 556.99,-432 665.99,-432 665.99,-462 659.99,-468"/>
<polyline fill="none" stroke="black" points="659.99,-468 659.99,-462"/>
<polyline fill="none" stroke="black" points="665.99,-462 659.99,-462"/>
<text text-anchor="middle" x="611.49" y="-444.95" font-family="Times,serif" font-size="14.00">var.profile_name</text>
</g>
<!-- [root] ibm_is_instance.vsi (expand)&#45;&gt;[root] var.profile_name -->
<g id="edge8" class="edge">
<title>[root] ibm_is_instance.vsi (expand)&#45;&gt;[root] var.profile_name</title>
<path fill="none" stroke="black" d="M735.28,-503.52C713.35,-494.21 686.16,-482.68 662.86,-472.79"/>
<polygon fill="black" stroke="black" points="664.43,-469.66 653.86,-468.97 661.7,-476.1 664.43,-469.66"/>
</g>
<!-- [root] ibm_is_public_gateway.pgw (expand) -->
<g id="node4" class="node">
<title>[root] ibm_is_public_gateway.pgw (expand)</title>
<polygon fill="none" stroke="black" points="453.49,-612 281.49,-612 281.49,-576 453.49,-576 453.49,-612"/>
<text text-anchor="middle" x="367.49" y="-588.95" font-family="Times,serif" font-size="14.00">ibm_is_public_gateway.pgw</text>
</g>
<!-- [root] ibm_is_vpc.vpc (expand) -->
<g id="node8" class="node">
<title>[root] ibm_is_vpc.vpc (expand)</title>
<polygon fill="none" stroke="black" points="596.99,-324 493.99,-324 493.99,-288 596.99,-288 596.99,-324"/>
<text text-anchor="middle" x="545.49" y="-300.95" font-family="Times,serif" font-size="14.00">ibm_is_vpc.vpc</text>
</g>
<!-- [root] ibm_is_public_gateway.pgw (expand)&#45;&gt;[root] ibm_is_vpc.vpc (expand) -->
<g id="edge9" class="edge">
<title>[root] ibm_is_public_gateway.pgw (expand)&#45;&gt;[root] ibm_is_vpc.vpc (expand)</title>
<path fill="none" stroke="black" d="M361.68,-575.6C348.83,-533.64 322.95,-425.51 372.49,-360 397.93,-326.36 444.26,-313.43 482.58,-308.74"/>
<polygon fill="black" stroke="black" points="482.58,-312.26 492.16,-307.73 481.85,-305.29 482.58,-312.26"/>
</g>
<!-- [root] ibm_is_security_group_rule.sg&#45;rule&#45;inbound&#45;ssh (expand) -->
<g id="node5" class="node">
<title>[root] ibm_is_security_group_rule.sg&#45;rule&#45;inbound&#45;ssh (expand)</title>
<polygon fill="none" stroke="black" points="661.87,-396 381.12,-396 381.12,-360 661.87,-360 661.87,-396"/>
<text text-anchor="middle" x="521.49" y="-372.95" font-family="Times,serif" font-size="14.00">ibm_is_security_group_rule.sg&#45;rule&#45;inbound&#45;ssh</text>
</g>
<!-- [root] ibm_is_security_group_rule.sg&#45;rule&#45;inbound&#45;ssh (expand)&#45;&gt;[root] ibm_is_vpc.vpc (expand) -->
<g id="edge10" class="edge">
<title>[root] ibm_is_security_group_rule.sg&#45;rule&#45;inbound&#45;ssh (expand)&#45;&gt;[root] ibm_is_vpc.vpc (expand)</title>
<path fill="none" stroke="black" d="M527.42,-359.7C529.98,-352.24 533.04,-343.32 535.9,-334.97"/>
<polygon fill="black" stroke="black" points="539.2,-336.13 539.14,-325.54 532.58,-333.86 539.2,-336.13"/>
</g>
<!-- [root] ibm_resource_group.rg (expand) -->
<g id="node10" class="node">
<title>[root] ibm_resource_group.rg (expand)</title>
<polygon fill="none" stroke="black" points="674.24,-252 530.74,-252 530.74,-216 674.24,-216 674.24,-252"/>
<text text-anchor="middle" x="602.49" y="-228.95" font-family="Times,serif" font-size="14.00">ibm_resource_group.rg</text>
</g>
<!-- [root] ibm_is_ssh_key.generated_ssh_key (expand)&#45;&gt;[root] ibm_resource_group.rg (expand) -->
<g id="edge11" class="edge">
<title>[root] ibm_is_ssh_key.generated_ssh_key (expand)&#45;&gt;[root] ibm_resource_group.rg (expand)</title>
<path fill="none" stroke="black" d="M1109.47,-431.52C1100.45,-411.28 1082.87,-378.38 1057.49,-360 945.48,-278.89 783.34,-250.4 685.89,-240.4"/>
<polygon fill="black" stroke="black" points="686.43,-236.93 676.13,-239.44 685.74,-243.9 686.43,-236.93"/>
</g>
<!-- [root] tls_private_key.rsa_4096_key (expand) -->
<g id="node17" class="node">
<title>[root] tls_private_key.rsa_4096_key (expand)</title>
<polygon fill="none" stroke="black" points="1744.49,-396 1566.49,-396 1566.49,-360 1744.49,-360 1744.49,-396"/>
<text text-anchor="middle" x="1655.49" y="-372.95" font-family="Times,serif" font-size="14.00">tls_private_key.rsa_4096_key</text>
</g>
<!-- [root] ibm_is_ssh_key.generated_ssh_key (expand)&#45;&gt;[root] tls_private_key.rsa_4096_key (expand) -->
<g id="edge12" class="edge">
<title>[root] ibm_is_ssh_key.generated_ssh_key (expand)&#45;&gt;[root] tls_private_key.rsa_4096_key (expand)</title>
<path fill="none" stroke="black" d="M1221.7,-435.34C1318.11,-422.82 1459.89,-404.4 1554.84,-392.07"/>
<polygon fill="black" stroke="black" points="1555.22,-395.55 1564.69,-390.79 1554.32,-388.61 1555.22,-395.55"/>
</g>
<!-- [root] ibm_is_vpc_address_prefix.subnet_prefix (expand) -->
<g id="node9" class="node">
<title>[root] ibm_is_vpc_address_prefix.subnet_prefix (expand)</title>
<polygon fill="none" stroke="black" points="1048.49,-396 804.49,-396 804.49,-360 1048.49,-360 1048.49,-396"/>
<text text-anchor="middle" x="926.49" y="-372.95" font-family="Times,serif" font-size="14.00">ibm_is_vpc_address_prefix.subnet_prefix</text>
</g>
<!-- [root] ibm_is_subnet.subnet (expand)&#45;&gt;[root] ibm_is_vpc_address_prefix.subnet_prefix (expand) -->
<g id="edge13" class="edge">
<title>[root] ibm_is_subnet.subnet (expand)&#45;&gt;[root] ibm_is_vpc_address_prefix.subnet_prefix (expand)</title>
<path fill="none" stroke="black" d="M926.49,-431.7C926.49,-424.41 926.49,-415.73 926.49,-407.54"/>
<polygon fill="black" stroke="black" points="929.99,-407.62 926.49,-397.62 922.99,-407.62 929.99,-407.62"/>
</g>
<!-- [root] ibm_is_vpc.vpc (expand)&#45;&gt;[root] ibm_resource_group.rg (expand) -->
<g id="edge14" class="edge">
<title>[root] ibm_is_vpc.vpc (expand)&#45;&gt;[root] ibm_resource_group.rg (expand)</title>
<path fill="none" stroke="black" d="M559.58,-287.7C566.14,-279.64 574.08,-269.89 581.33,-260.98"/>
<polygon fill="black" stroke="black" points="584.01,-263.24 587.61,-253.28 578.58,-258.82 584.01,-263.24"/>
</g>
<!-- [root] ibm_is_vpc_address_prefix.subnet_prefix (expand)&#45;&gt;[root] ibm_is_vpc.vpc (expand) -->
<g id="edge15" class="edge">
<title>[root] ibm_is_vpc_address_prefix.subnet_prefix (expand)&#45;&gt;[root] ibm_is_vpc.vpc (expand)</title>
<path fill="none" stroke="black" d="M831.33,-359.52C761.76,-346.73 669.33,-329.75 608.66,-318.61"/>
<polygon fill="black" stroke="black" points="609.3,-315.17 598.83,-316.8 608.04,-322.05 609.3,-315.17"/>
</g>
<!-- [root] ibm_resource_group.rg (expand)&#45;&gt;[root] provider[&quot;registry.terraform.io/ibm&#45;cloud/ibm&quot;] -->
<g id="edge17" class="edge">
<title>[root] ibm_resource_group.rg (expand)&#45;&gt;[root] provider[&quot;registry.terraform.io/ibm&#45;cloud/ibm&quot;]</title>
<path fill="none" stroke="black" d="M674.63,-221.28C749.47,-209.13 866.53,-190.12 946.46,-177.13"/>
<polygon fill="black" stroke="black" points="946.68,-180.64 955.99,-175.59 945.56,-173.74 946.68,-180.64"/>
</g>
<!-- [root] var.tags -->
<g id="node25" class="node">
<title>[root] var.tags</title>
<polygon fill="none" stroke="black" points="451.49,-180 399.49,-180 399.49,-144 457.49,-144 457.49,-174 451.49,-180"/>
<polyline fill="none" stroke="black" points="451.49,-180 451.49,-174"/>
<polyline fill="none" stroke="black" points="457.49,-174 451.49,-174"/>
<text text-anchor="middle" x="428.49" y="-156.95" font-family="Times,serif" font-size="14.00">var.tags</text>
</g>
<!-- [root] ibm_resource_group.rg (expand)&#45;&gt;[root] var.tags -->
<g id="edge18" class="edge">
<title>[root] ibm_resource_group.rg (expand)&#45;&gt;[root] var.tags</title>
<path fill="none" stroke="black" d="M556,-215.53C532.09,-206.4 502.29,-194.8 468.5,-180.76"/>
<polygon fill="black" stroke="black" points="469.86,-177.53 459.28,-176.91 467.16,-183.99 469.86,-177.53"/>
</g>
<!-- [root] local.basename (expand) -->
<g id="node26" class="node">
<title>[root] local.basename (expand)</title>
<ellipse fill="none" stroke="black" cx="602.49" cy="-162" rx="127.1" ry="18"/>
<text text-anchor="middle" x="602.49" y="-156.95" font-family="Times,serif" font-size="14.00">[root] local.basename (expand)</text>
</g>
<!-- [root] ibm_resource_group.rg (expand)&#45;&gt;[root] local.basename (expand) -->
<g id="edge16" class="edge">
<title>[root] ibm_resource_group.rg (expand)&#45;&gt;[root] local.basename (expand)</title>
<path fill="none" stroke="black" d="M602.49,-215.7C602.49,-208.41 602.49,-199.73 602.49,-191.54"/>
<polygon fill="black" stroke="black" points="605.99,-191.62 602.49,-181.62 598.99,-191.62 605.99,-191.62"/>
</g>
<!-- [root] local_file.private_key (expand) -->
<g id="node11" class="node">
<title>[root] local_file.private_key (expand)</title>
<polygon fill="none" stroke="black" points="1695.74,-612 1561.24,-612 1561.24,-576 1695.74,-576 1695.74,-612"/>
<text text-anchor="middle" x="1628.49" y="-588.95" font-family="Times,serif" font-size="14.00">local_file.private_key</text>
</g>
<!-- [root] provider[&quot;registry.terraform.io/hashicorp/local&quot;] -->
<g id="node12" class="node">
<title>[root] provider[&quot;registry.terraform.io/hashicorp/local&quot;]</title>
<polygon fill="none" stroke="black" points="1464.49,-540 1194.99,-522 1464.49,-504 1733.99,-522 1464.49,-540"/>
<text text-anchor="middle" x="1464.49" y="-516.95" font-family="Times,serif" font-size="14.00">provider[&quot;registry.terraform.io/hashicorp/local&quot;]</text>
</g>
<!-- [root] local_file.private_key (expand)&#45;&gt;[root] provider[&quot;registry.terraform.io/hashicorp/local&quot;] -->
<g id="edge20" class="edge">
<title>[root] local_file.private_key (expand)&#45;&gt;[root] provider[&quot;registry.terraform.io/hashicorp/local&quot;]</title>
<path fill="none" stroke="black" d="M1587.53,-575.52C1564.06,-565.5 1534.54,-552.9 1510.31,-542.55"/>
<polygon fill="black" stroke="black" points="1511.89,-539.43 1501.32,-538.72 1509.14,-545.86 1511.89,-539.43"/>
</g>
<!-- [root] local_file.private_key (expand)&#45;&gt;[root] tls_private_key.rsa_4096_key (expand) -->
<g id="edge21" class="edge">
<title>[root] local_file.private_key (expand)&#45;&gt;[root] tls_private_key.rsa_4096_key (expand)</title>
<path fill="none" stroke="black" d="M1696.21,-576.2C1714.32,-568.28 1731.81,-556.75 1742.49,-540 1772.23,-493.38 1721.32,-435.73 1685.67,-403.6"/>
<polygon fill="black" stroke="black" points="1688.41,-401.35 1678.58,-397.38 1683.79,-406.61 1688.41,-401.35"/>
</g>
<!-- [root] provider[&quot;registry.terraform.io/hashicorp/random&quot;] -->
<g id="node13" class="node">
<title>[root] provider[&quot;registry.terraform.io/hashicorp/random&quot;]</title>
<polygon fill="none" stroke="black" points="319.49,-36 34.79,-18 319.49,0 604.19,-18 319.49,-36"/>
<text text-anchor="middle" x="319.49" y="-12.95" font-family="Times,serif" font-size="14.00">provider[&quot;registry.terraform.io/hashicorp/random&quot;]</text>
</g>
<!-- [root] provider[&quot;registry.terraform.io/hashicorp/tls&quot;] -->
<g id="node14" class="node">
<title>[root] provider[&quot;registry.terraform.io/hashicorp/tls&quot;]</title>
<polygon fill="none" stroke="black" points="1655.49,-324 1399.02,-306 1655.49,-288 1911.96,-306 1655.49,-324"/>
<text text-anchor="middle" x="1655.49" y="-300.95" font-family="Times,serif" font-size="14.00">provider[&quot;registry.terraform.io/hashicorp/tls&quot;]</text>
</g>
<!-- [root] var.region -->
<g id="node22" class="node">
<title>[root] var.region</title>
<polygon fill="none" stroke="black" points="1062.87,-108 998.12,-108 998.12,-72 1068.87,-72 1068.87,-102 1062.87,-108"/>
<polyline fill="none" stroke="black" points="1062.87,-108 1062.87,-102"/>
<polyline fill="none" stroke="black" points="1068.87,-102 1062.87,-102"/>
<text text-anchor="middle" x="1033.49" y="-84.95" font-family="Times,serif" font-size="14.00">var.region</text>
</g>
<!-- [root] provider[&quot;registry.terraform.io/ibm&#45;cloud/ibm&quot;]&#45;&gt;[root] var.region -->
<g id="edge31" class="edge">
<title>[root] provider[&quot;registry.terraform.io/ibm&#45;cloud/ibm&quot;]&#45;&gt;[root] var.region</title>
<path fill="none" stroke="black" d="M1033.49,-143.7C1033.49,-136.41 1033.49,-127.73 1033.49,-119.54"/>
<polygon fill="black" stroke="black" points="1036.99,-119.62 1033.49,-109.62 1029.99,-119.62 1036.99,-119.62"/>
</g>
<!-- [root] random_string.random (expand) -->
<g id="node16" class="node">
<title>[root] random_string.random (expand)</title>
<polygon fill="none" stroke="black" points="558.12,-108 416.87,-108 416.87,-72 558.12,-72 558.12,-108"/>
<text text-anchor="middle" x="487.49" y="-84.95" font-family="Times,serif" font-size="14.00">random_string.random</text>
</g>
<!-- [root] random_string.random (expand)&#45;&gt;[root] provider[&quot;registry.terraform.io/hashicorp/random&quot;] -->
<g id="edge32" class="edge">
<title>[root] random_string.random (expand)&#45;&gt;[root] provider[&quot;registry.terraform.io/hashicorp/random&quot;]</title>
<path fill="none" stroke="black" d="M445.53,-71.52C421.38,-61.45 390.98,-48.79 366.09,-38.42"/>
<polygon fill="black" stroke="black" points="367.77,-35.32 357.19,-34.71 365.08,-41.78 367.77,-35.32"/>
</g>
<!-- [root] var.prefix -->
<g id="node20" class="node">
<title>[root] var.prefix</title>
<polygon fill="none" stroke="black" points="684.74,-36 622.24,-36 622.24,0 690.74,0 690.74,-30 684.74,-36"/>
<polyline fill="none" stroke="black" points="684.74,-36 684.74,-30"/>
<polyline fill="none" stroke="black" points="690.74,-30 684.74,-30"/>
<text text-anchor="middle" x="656.49" y="-12.95" font-family="Times,serif" font-size="14.00">var.prefix</text>
</g>
<!-- [root] random_string.random (expand)&#45;&gt;[root] var.prefix -->
<g id="edge33" class="edge">
<title>[root] random_string.random (expand)&#45;&gt;[root] var.prefix</title>
<path fill="none" stroke="black" d="M529.7,-71.52C554.6,-61.21 586.09,-48.16 611.46,-37.65"/>
<polygon fill="black" stroke="black" points="612.62,-40.96 620.52,-33.9 609.94,-34.49 612.62,-40.96"/>
</g>
<!-- [root] tls_private_key.rsa_4096_key (expand)&#45;&gt;[root] provider[&quot;registry.terraform.io/hashicorp/tls&quot;] -->
<g id="edge44" class="edge">
<title>[root] tls_private_key.rsa_4096_key (expand)&#45;&gt;[root] provider[&quot;registry.terraform.io/hashicorp/tls&quot;]</title>
<path fill="none" stroke="black" d="M1655.49,-359.7C1655.49,-352.41 1655.49,-343.73 1655.49,-335.54"/>
<polygon fill="black" stroke="black" points="1658.99,-335.62 1655.49,-325.62 1651.99,-335.62 1658.99,-335.62"/>
</g>
<!-- [root] var.ssh_key_id -->
<g id="node23" class="node">
<title>[root] var.ssh_key_id</title>
<polygon fill="none" stroke="black" points="1185.99,-684 1094.99,-684 1094.99,-648 1191.99,-648 1191.99,-678 1185.99,-684"/>
<polyline fill="none" stroke="black" points="1185.99,-684 1185.99,-678"/>
<polyline fill="none" stroke="black" points="1191.99,-678 1185.99,-678"/>
<text text-anchor="middle" x="1143.49" y="-660.95" font-family="Times,serif" font-size="14.00">var.ssh_key_id</text>
</g>
<!-- [root] var.ssh_public_key -->
<g id="node24" class="node">
<title>[root] var.ssh_public_key</title>
<polygon fill="none" stroke="black" points="1324.62,-684 1210.37,-684 1210.37,-648 1330.62,-648 1330.62,-678 1324.62,-684"/>
<polyline fill="none" stroke="black" points="1324.62,-684 1324.62,-678"/>
<polyline fill="none" stroke="black" points="1330.62,-678 1324.62,-678"/>
<text text-anchor="middle" x="1270.49" y="-660.95" font-family="Times,serif" font-size="14.00">var.ssh_public_key</text>
</g>
<!-- [root] local.basename (expand)&#45;&gt;[root] random_string.random (expand) -->
<g id="edge19" class="edge">
<title>[root] local.basename (expand)&#45;&gt;[root] random_string.random (expand)</title>
<path fill="none" stroke="black" d="M574.65,-144.05C559.9,-135.07 541.56,-123.91 525.51,-114.14"/>
<polygon fill="black" stroke="black" points="527.53,-111.27 517.17,-109.06 523.89,-117.25 527.53,-111.27"/>
</g>
<!-- [root] output.private_key_pem (expand) -->
<g id="node27" class="node">
<title>[root] output.private_key_pem (expand)</title>
<ellipse fill="none" stroke="black" cx="1016.49" cy="-522" rx="160.37" ry="18"/>
<text text-anchor="middle" x="1016.49" y="-516.95" font-family="Times,serif" font-size="14.00">[root] output.private_key_pem (expand)</text>
</g>
<!-- [root] output.private_key_pem (expand)&#45;&gt;[root] tls_private_key.rsa_4096_key (expand) -->
<g id="edge22" class="edge">
<title>[root] output.private_key_pem (expand)&#45;&gt;[root] tls_private_key.rsa_4096_key (expand)</title>
<path fill="none" stroke="black" d="M1086.7,-505.4C1203.5,-479.44 1437.53,-427.44 1565.99,-398.89"/>
<polygon fill="black" stroke="black" points="1566.47,-402.37 1575.48,-396.78 1564.95,-395.53 1566.47,-402.37"/>
</g>
<!-- [root] output.vsi_private_ip (expand) -->
<g id="node28" class="node">
<title>[root] output.vsi_private_ip (expand)</title>
<ellipse fill="none" stroke="black" cx="1038.49" cy="-594" rx="148.59" ry="18"/>
<text text-anchor="middle" x="1038.49" y="-588.95" font-family="Times,serif" font-size="14.00">[root] output.vsi_private_ip (expand)</text>
</g>
<!-- [root] output.vsi_private_ip (expand)&#45;&gt;[root] ibm_is_instance.vsi (expand) -->
<g id="edge23" class="edge">
<title>[root] output.vsi_private_ip (expand)&#45;&gt;[root] ibm_is_instance.vsi (expand)</title>
<path fill="none" stroke="black" d="M979.04,-577.12C940.73,-566.88 890.65,-553.5 849.87,-542.6"/>
<polygon fill="black" stroke="black" points="850.93,-539.26 840.36,-540.07 849.12,-546.03 850.93,-539.26"/>
</g>
<!-- [root] output.vsi_public_ip (expand) -->
<g id="node29" class="node">
<title>[root] output.vsi_public_ip (expand)</title>
<ellipse fill="none" stroke="black" cx="892.49" cy="-666" rx="146.04" ry="18"/>
<text text-anchor="middle" x="892.49" y="-660.95" font-family="Times,serif" font-size="14.00">[root] output.vsi_public_ip (expand)</text>
</g>
<!-- [root] output.vsi_public_ip (expand)&#45;&gt;[root] ibm_is_floating_ip.public_ip (expand) -->
<g id="edge24" class="edge">
<title>[root] output.vsi_public_ip (expand)&#45;&gt;[root] ibm_is_floating_ip.public_ip (expand)</title>
<path fill="none" stroke="black" d="M848.18,-648.41C822.62,-638.85 790.22,-626.72 762.75,-616.43"/>
<polygon fill="black" stroke="black" points="764.11,-613.21 753.52,-612.98 761.66,-619.76 764.11,-613.21"/>
</g>
<!-- [root] provider[&quot;registry.terraform.io/hashicorp/local&quot;] (close) -->
<g id="node30" class="node">
<title>[root] provider[&quot;registry.terraform.io/hashicorp/local&quot;] (close)</title>
<ellipse fill="none" stroke="black" cx="1628.49" cy="-666" rx="241.74" ry="18"/>
<text text-anchor="middle" x="1628.49" y="-660.95" font-family="Times,serif" font-size="14.00">[root] provider[&quot;registry.terraform.io/hashicorp/local&quot;] (close)</text>
</g>
<!-- [root] provider[&quot;registry.terraform.io/hashicorp/local&quot;] (close)&#45;&gt;[root] local_file.private_key (expand) -->
<g id="edge25" class="edge">
<title>[root] provider[&quot;registry.terraform.io/hashicorp/local&quot;] (close)&#45;&gt;[root] local_file.private_key (expand)</title>
<path fill="none" stroke="black" d="M1628.49,-647.7C1628.49,-640.41 1628.49,-631.73 1628.49,-623.54"/>
<polygon fill="black" stroke="black" points="1631.99,-623.62 1628.49,-613.62 1624.99,-623.62 1631.99,-623.62"/>
</g>
<!-- [root] provider[&quot;registry.terraform.io/hashicorp/random&quot;] (close) -->
<g id="node31" class="node">
<title>[root] provider[&quot;registry.terraform.io/hashicorp/random&quot;] (close)</title>
<ellipse fill="none" stroke="black" cx="252.49" cy="-234" rx="252.49" ry="18"/>
<text text-anchor="middle" x="252.49" y="-228.95" font-family="Times,serif" font-size="14.00">[root] provider[&quot;registry.terraform.io/hashicorp/random&quot;] (close)</text>
</g>
<!-- [root] provider[&quot;registry.terraform.io/hashicorp/random&quot;] (close)&#45;&gt;[root] random_string.random (expand) -->
<g id="edge26" class="edge">
<title>[root] provider[&quot;registry.terraform.io/hashicorp/random&quot;] (close)&#45;&gt;[root] random_string.random (expand)</title>
<path fill="none" stroke="black" d="M278.08,-215.7C305.52,-197.34 350.55,-167.75 390.49,-144 408,-133.59 427.67,-122.7 444.7,-113.51"/>
<polygon fill="black" stroke="black" points="445.89,-116.85 453.05,-109.04 442.58,-110.68 445.89,-116.85"/>
</g>
<!-- [root] provider[&quot;registry.terraform.io/hashicorp/tls&quot;] (close) -->
<g id="node32" class="node">
<title>[root] provider[&quot;registry.terraform.io/hashicorp/tls&quot;] (close)</title>
<ellipse fill="none" stroke="black" cx="2022.49" cy="-522" rx="232.53" ry="18"/>
<text text-anchor="middle" x="2022.49" y="-516.95" font-family="Times,serif" font-size="14.00">[root] provider[&quot;registry.terraform.io/hashicorp/tls&quot;] (close)</text>
</g>
<!-- [root] provider[&quot;registry.terraform.io/hashicorp/tls&quot;] (close)&#45;&gt;[root] tls_private_key.rsa_4096_key (expand) -->
<g id="edge27" class="edge">
<title>[root] provider[&quot;registry.terraform.io/hashicorp/tls&quot;] (close)&#45;&gt;[root] tls_private_key.rsa_4096_key (expand)</title>
<path fill="none" stroke="black" d="M1978.22,-503.87C1911.17,-477.93 1783.95,-428.71 1710.87,-400.43"/>
<polygon fill="black" stroke="black" points="1712.49,-397.3 1701.9,-396.96 1709.97,-403.83 1712.49,-397.3"/>
</g>
<!-- [root] provider[&quot;registry.terraform.io/ibm&#45;cloud/ibm&quot;] (close) -->
<g id="node33" class="node">
<title>[root] provider[&quot;registry.terraform.io/ibm&#45;cloud/ibm&quot;] (close)</title>
<ellipse fill="none" stroke="black" cx="487.49" cy="-666" rx="241.23" ry="18"/>
<text text-anchor="middle" x="487.49" y="-660.95" font-family="Times,serif" font-size="14.00">[root] provider[&quot;registry.terraform.io/ibm&#45;cloud/ibm&quot;] (close)</text>
</g>
<!-- [root] provider[&quot;registry.terraform.io/ibm&#45;cloud/ibm&quot;] (close)&#45;&gt;[root] ibm_is_floating_ip.public_ip (expand) -->
<g id="edge28" class="edge">
<title>[root] provider[&quot;registry.terraform.io/ibm&#45;cloud/ibm&quot;] (close)&#45;&gt;[root] ibm_is_floating_ip.public_ip (expand)</title>
<path fill="none" stroke="black" d="M540.54,-647.97C570.66,-638.29 608.6,-626.11 640.5,-615.87"/>
<polygon fill="black" stroke="black" points="641.17,-619.33 649.62,-612.94 639.03,-612.66 641.17,-619.33"/>
</g>
<!-- [root] provider[&quot;registry.terraform.io/ibm&#45;cloud/ibm&quot;] (close)&#45;&gt;[root] ibm_is_public_gateway.pgw (expand) -->
<g id="edge29" class="edge">
<title>[root] provider[&quot;registry.terraform.io/ibm&#45;cloud/ibm&quot;] (close)&#45;&gt;[root] ibm_is_public_gateway.pgw (expand)</title>
<path fill="none" stroke="black" d="M457.83,-647.7C442.54,-638.78 423.69,-627.78 407.16,-618.14"/>
<polygon fill="black" stroke="black" points="408.94,-615.13 398.54,-613.11 405.41,-621.17 408.94,-615.13"/>
</g>
<!-- [root] provider[&quot;registry.terraform.io/ibm&#45;cloud/ibm&quot;] (close)&#45;&gt;[root] ibm_is_security_group_rule.sg&#45;rule&#45;inbound&#45;ssh (expand) -->
<g id="edge30" class="edge">
<title>[root] provider[&quot;registry.terraform.io/ibm&#45;cloud/ibm&quot;] (close)&#45;&gt;[root] ibm_is_security_group_rule.sg&#45;rule&#45;inbound&#45;ssh (expand)</title>
<path fill="none" stroke="black" d="M489.57,-647.54C495.25,-599.76 511.09,-466.51 518.09,-407.61"/>
<polygon fill="black" stroke="black" points="521.56,-408.08 519.26,-397.73 514.61,-407.25 521.56,-408.08"/>
</g>
<!-- [root] root -->
<g id="node34" class="node">
<title>[root] root</title>
<ellipse fill="none" stroke="black" cx="1206.49" cy="-738" rx="49.3" ry="18"/>
<text text-anchor="middle" x="1206.49" y="-732.95" font-family="Times,serif" font-size="14.00">[root] root</text>
</g>
<!-- [root] root&#45;&gt;[root] var.ssh_key_id -->
<g id="edge42" class="edge">
<title>[root] root&#45;&gt;[root] var.ssh_key_id</title>
<path fill="none" stroke="black" d="M1191.56,-720.41C1184.17,-712.2 1175.08,-702.1 1166.8,-692.9"/>
<polygon fill="black" stroke="black" points="1169.5,-690.66 1160.21,-685.57 1164.29,-695.35 1169.5,-690.66"/>
</g>
<!-- [root] root&#45;&gt;[root] var.ssh_public_key -->
<g id="edge43" class="edge">
<title>[root] root&#45;&gt;[root] var.ssh_public_key</title>
<path fill="none" stroke="black" d="M1221.66,-720.41C1229.17,-712.2 1238.4,-702.1 1246.81,-692.9"/>
<polygon fill="black" stroke="black" points="1249.35,-695.31 1253.52,-685.56 1244.19,-690.58 1249.35,-695.31"/>
</g>
<!-- [root] root&#45;&gt;[root] output.private_key_pem (expand) -->
<g id="edge34" class="edge">
<title>[root] root&#45;&gt;[root] output.private_key_pem (expand)</title>
<path fill="none" stroke="black" d="M1252.95,-731.7C1283.1,-725.57 1320.24,-712.39 1339.49,-684 1348.47,-670.76 1347.88,-661.62 1339.49,-648 1299.22,-582.64 1218.79,-551.38 1148.26,-536.47"/>
<polygon fill="black" stroke="black" points="1149.01,-533.05 1138.52,-534.51 1147.63,-539.91 1149.01,-533.05"/>
</g>
<!-- [root] root&#45;&gt;[root] output.vsi_private_ip (expand) -->
<g id="edge36" class="edge">
<title>[root] root&#45;&gt;[root] output.vsi_private_ip (expand)</title>
<path fill="none" stroke="black" d="M1166.72,-726.98C1141.06,-718.87 1108.34,-705.23 1085.49,-684 1067.52,-667.29 1055.12,-642.13 1047.59,-622.82"/>
<polygon fill="black" stroke="black" points="1050.96,-621.84 1044.23,-613.66 1044.39,-624.25 1050.96,-621.84"/>
</g>
<!-- [root] root&#45;&gt;[root] output.vsi_public_ip (expand) -->
<g id="edge37" class="edge">
<title>[root] root&#45;&gt;[root] output.vsi_public_ip (expand)</title>
<path fill="none" stroke="black" d="M1165.12,-727.78C1116.21,-716.87 1033.69,-698.48 972.23,-684.78"/>
<polygon fill="black" stroke="black" points="973.01,-681.36 962.48,-682.6 971.48,-688.2 973.01,-681.36"/>
</g>
<!-- [root] root&#45;&gt;[root] provider[&quot;registry.terraform.io/hashicorp/local&quot;] (close) -->
<g id="edge38" class="edge">
<title>[root] root&#45;&gt;[root] provider[&quot;registry.terraform.io/hashicorp/local&quot;] (close)</title>
<path fill="none" stroke="black" d="M1250.86,-729.64C1314.51,-719.08 1433.73,-699.31 1521.24,-684.79"/>
<polygon fill="black" stroke="black" points="1521.77,-688.25 1531.06,-683.16 1520.63,-681.34 1521.77,-688.25"/>
</g>
<!-- [root] root&#45;&gt;[root] provider[&quot;registry.terraform.io/hashicorp/random&quot;] (close) -->
<g id="edge39" class="edge">
<title>[root] root&#45;&gt;[root] provider[&quot;registry.terraform.io/hashicorp/random&quot;] (close)</title>
<path fill="none" stroke="black" d="M1157.14,-735.95C964.6,-731.65 272.74,-714.15 237.49,-684 206.75,-657.71 218.49,-635.45 218.49,-595 218.49,-595 218.49,-595 218.49,-377 218.49,-336.45 231.77,-291.13 241.73,-262.84"/>
<polygon fill="black" stroke="black" points="244.96,-264.19 245.09,-253.59 238.38,-261.79 244.96,-264.19"/>
</g>
<!-- [root] root&#45;&gt;[root] provider[&quot;registry.terraform.io/hashicorp/tls&quot;] (close) -->
<g id="edge40" class="edge">
<title>[root] root&#45;&gt;[root] provider[&quot;registry.terraform.io/hashicorp/tls&quot;] (close)</title>
<path fill="none" stroke="black" d="M1255.66,-735.24C1401.34,-729.75 1824.04,-711.58 1879.49,-684 1895.27,-676.15 1965.41,-592.5 2001.25,-548.98"/>
<polygon fill="black" stroke="black" points="2003.74,-551.46 2007.38,-541.52 1998.33,-547.02 2003.74,-551.46"/>
</g>
<!-- [root] root&#45;&gt;[root] provider[&quot;registry.terraform.io/ibm&#45;cloud/ibm&quot;] (close) -->
<g id="edge41" class="edge">
<title>[root] root&#45;&gt;[root] provider[&quot;registry.terraform.io/ibm&#45;cloud/ibm&quot;] (close)</title>
<path fill="none" stroke="black" d="M1159.32,-732.41C1055.94,-722.34 805.57,-697.97 641.39,-681.98"/>
<polygon fill="black" stroke="black" points="642.01,-678.53 631.72,-681.04 641.33,-685.49 642.01,-678.53"/>
</g>
<!-- [root] output.ssh_connection_string (expand) -->
<g id="node35" class="node">
<title>[root] output.ssh_connection_string (expand)</title>
<ellipse fill="none" stroke="black" cx="2104.49" cy="-666" rx="178.28" ry="18"/>
<text text-anchor="middle" x="2104.49" y="-660.95" font-family="Times,serif" font-size="14.00">[root] output.ssh_connection_string (expand)</text>
</g>
<!-- [root] root&#45;&gt;[root] output.ssh_connection_string (expand) -->
<g id="edge35" class="edge">
<title>[root] root&#45;&gt;[root] output.ssh_connection_string (expand)</title>
<path fill="none" stroke="black" d="M1254.45,-733.62C1368.53,-725.54 1665.03,-704.24 1912.49,-684 1929.04,-682.65 1946.39,-681.18 1963.61,-679.69"/>
<polygon fill="black" stroke="black" points="1963.73,-683.19 1973.39,-678.84 1963.12,-676.22 1963.73,-683.19"/>
</g>
</g>
</svg>
